<svg width="481" height="60" viewBox="0 0 481 60" fill="none" xmlns="http://www.w3.org/2000/svg">
<path d="M236.115 58.9003C236.115 58.9003 236.115 53.8595 236.115 48.8188C236.115 43.778 236.078 42.0978 236.004 42.0978C235.931 42.0978 235.881 42.0978 235.82 42.0978C235.76 42.0978 235.704 39.6974 235.704 34.4167C235.704 29.1359 235.704 18.0943 235.704 18.0943" stroke="black" stroke-width="2" stroke-linejoin="round" stroke-dasharray="4 4"/>
<path d="M235.383 59C235.383 59 235.383 53.9353 235.383 48.8706C235.383 43.8059 227.301 42.1176 211.136 42.1176C194.972 42.1176 184.003 42.1176 170.725 42.1176C157.447 42.1176 145.323 39.7059 145.323 34.4C145.323 29.0941 145.323 18 145.323 18" stroke="black" stroke-width="2" stroke-linejoin="round" stroke-dasharray="4 4"/>
<path d="M236.406 59C236.406 59 236.406 53.9353 236.406 48.8706C236.406 43.8059 219.517 42.1176 185.737 42.1176C151.958 42.1176 100.556 42.1176 72.8086 42.1176C45.0614 42.1176 48.2075 35.9507 48.2075 30.6449C48.2075 25.339 48.2075 18 48.2075 18" stroke="black" stroke-width="2" stroke-linejoin="round" stroke-dasharray="4 4"/>
<path d="M234.447 60V47.7209C234.447 47.7209 232.786 40.75 243.92 40.75C255.053 40.75 317.373 40.75 320.554 40.75C323.735 40.75 328.513 36.6905 328.513 32.3721C328.513 28.0537 328.513 16 328.513 16" stroke="black" stroke-width="2" stroke-linejoin="round" stroke-dasharray="4 4"/>
<path d="M234.545 60V47.7209C234.545 47.7209 231.025 40.75 254.623 40.75C278.22 40.75 410.312 40.75 417.054 40.75C423.796 40.75 433.923 36.6905 433.923 32.3721C433.923 28.0537 433.923 16 433.923 16" stroke="black" stroke-width="2" stroke-linejoin="round" stroke-dasharray="4 4"/>
<rect y="1.39546" width="91.9903" height="14.9426" rx="7.47128" fill="#333333"/>
<path d="M12.0288 12C11.9572 11.8604 11.9053 11.6867 11.873 11.479C11.4971 11.8979 11.0083 12.1074 10.4067 12.1074C9.83739 12.1074 9.36473 11.9427 8.98875 11.6133C8.61636 11.2839 8.43016 10.8685 8.43016 10.3672C8.43016 9.7513 8.65754 9.27865 9.11229 8.94922C9.57062 8.61979 10.2313 8.45329 11.0942 8.44971H11.8086V8.1167C11.8086 7.84814 11.7388 7.6333 11.5991 7.47217C11.463 7.31104 11.2464 7.23047 10.9492 7.23047C10.6878 7.23047 10.4819 7.29313 10.3315 7.41846C10.1847 7.54378 10.1113 7.71566 10.1113 7.93408H8.55907C8.55907 7.59749 8.66291 7.28597 8.87059 6.99951C9.07827 6.71305 9.37189 6.48926 9.75145 6.32812C10.131 6.16341 10.5571 6.08105 11.0298 6.08105C11.7459 6.08105 12.3135 6.26188 12.7324 6.62354C13.1549 6.98161 13.3662 7.48649 13.3662 8.13818V10.6572C13.3698 11.2087 13.4468 11.6258 13.5972 11.9087V12H12.0288ZM10.7451 10.9204C10.9743 10.9204 11.1855 10.8703 11.3789 10.77C11.5723 10.6662 11.7155 10.5283 11.8086 10.3564V9.35742H11.2285C10.4515 9.35742 10.0379 9.62598 9.98778 10.1631L9.98241 10.2544C9.98241 10.4478 10.0504 10.6071 10.1865 10.7324C10.3226 10.8577 10.5088 10.9204 10.7451 10.9204ZM19.79 9.14795C19.79 10.0431 19.5859 10.7611 19.1777 11.3018C18.7731 11.8389 18.2252 12.1074 17.5342 12.1074C16.9469 12.1074 16.4725 11.9033 16.1108 11.4951V14.2344H14.5586V6.18848H15.998L16.0517 6.75781C16.4277 6.30664 16.9183 6.08105 17.5234 6.08105C18.2396 6.08105 18.7964 6.34603 19.1938 6.87598C19.5913 7.40592 19.79 8.13639 19.79 9.06738V9.14795ZM18.2378 9.03516C18.2378 8.49447 18.1411 8.07731 17.9477 7.78369C17.758 7.49007 17.4805 7.34326 17.1152 7.34326C16.6282 7.34326 16.2934 7.52946 16.1108 7.90186V10.2812C16.3006 10.6644 16.639 10.856 17.126 10.856C17.8672 10.856 18.2378 10.249 18.2378 9.03516ZM22.395 12H20.8374V6.18848H22.395V12ZM20.7461 4.68457C20.7461 4.45182 20.8231 4.26025 20.977 4.10986C21.1346 3.95947 21.3476 3.88428 21.6162 3.88428C21.8812 3.88428 22.0924 3.95947 22.25 4.10986C22.4075 4.26025 22.4863 4.45182 22.4863 4.68457C22.4863 4.9209 22.4057 5.11426 22.2446 5.26465C22.0871 5.41504 21.8776 5.49023 21.6162 5.49023C21.3548 5.49023 21.1435 5.41504 20.9824 5.26465C20.8249 5.11426 20.7461 4.9209 20.7461 4.68457ZM26.6973 9.27686H23.6733V8.02539H26.6973V9.27686ZM29.5815 12H28.0239V6.18848H29.5815V12ZM27.9326 4.68457C27.9326 4.45182 28.0096 4.26025 28.1636 4.10986C28.3211 3.95947 28.5342 3.88428 28.8027 3.88428C29.0677 3.88428 29.279 3.95947 29.4365 4.10986C29.5941 4.26025 29.6728 4.45182 29.6728 4.68457C29.6728 4.9209 29.5923 5.11426 29.4311 5.26465C29.2736 5.41504 29.0641 5.49023 28.8027 5.49023C28.5413 5.49023 28.3301 5.41504 28.1689 5.26465C28.0114 5.11426 27.9326 4.9209 27.9326 4.68457ZM32.2939 6.18848L32.3423 6.85986C32.7576 6.34066 33.3144 6.08105 34.0127 6.08105C34.6286 6.08105 35.0869 6.26188 35.3877 6.62354C35.6885 6.98519 35.8424 7.52588 35.8496 8.24561V12H34.2973V8.2832C34.2973 7.95378 34.2257 7.71566 34.0825 7.56885C33.9393 7.41846 33.7012 7.34326 33.3681 7.34326C32.9313 7.34326 32.6037 7.52946 32.3852 7.90186V12H30.833V6.18848H32.2939ZM37.4556 12V7.32715H36.5908V6.18848H37.4556V5.69434C37.4556 5.04264 37.6417 4.53776 38.0141 4.17969C38.3901 3.81803 38.9147 3.63721 39.5879 3.63721C39.8027 3.63721 40.0659 3.67301 40.3774 3.74463L40.3613 4.94775C40.2324 4.91553 40.0749 4.89941 39.8887 4.89941C39.305 4.89941 39.0132 5.17334 39.0132 5.72119V6.18848H40.168V7.32715H39.0132V12H37.4556ZM40.7319 9.04053C40.7319 8.46403 40.8429 7.9502 41.0649 7.49902C41.2869 7.04785 41.6056 6.69873 42.021 6.45166C42.4399 6.20459 42.9251 6.08105 43.4765 6.08105C44.2607 6.08105 44.8999 6.32096 45.394 6.80078C45.8917 7.2806 46.1693 7.93229 46.2265 8.75586L46.2373 9.15332C46.2373 10.0449 45.9884 10.7611 45.4907 11.3018C44.993 11.8389 44.3252 12.1074 43.4873 12.1074C42.6494 12.1074 41.9798 11.8389 41.4785 11.3018C40.9808 10.7646 40.7319 10.0342 40.7319 9.11035V9.04053ZM42.2842 9.15332C42.2842 9.70475 42.388 10.1273 42.5957 10.4209C42.8034 10.7109 43.1006 10.856 43.4873 10.856C43.8633 10.856 44.1569 10.7127 44.3681 10.4263C44.5794 10.1362 44.685 9.67432 44.685 9.04053C44.685 8.49984 44.5794 8.08089 44.3681 7.78369C44.1569 7.48649 43.8597 7.33789 43.4765 7.33789C43.097 7.33789 42.8034 7.48649 42.5957 7.78369C42.388 8.07731 42.2842 8.53385 42.2842 9.15332ZM50.459 7.64404C50.2477 7.6154 50.0615 7.60107 49.9004 7.60107C49.3131 7.60107 48.9282 7.7998 48.7456 8.19727V12H47.1933V6.18848H48.6597L48.7026 6.88135C49.0141 6.34782 49.4456 6.08105 49.9971 6.08105C50.1689 6.08105 50.3301 6.10433 50.4805 6.15088L50.459 7.64404ZM52.6665 6.18848L52.7148 6.83838C53.1266 6.3335 53.6834 6.08105 54.3852 6.08105C55.1336 6.08105 55.6474 6.37646 55.9267 6.96729C56.3349 6.37646 56.9168 6.08105 57.6723 6.08105C58.3026 6.08105 58.7716 6.26546 59.0796 6.63428C59.3875 6.99951 59.5415 7.55094 59.5415 8.28857V12H57.9839V8.29395C57.9839 7.96452 57.9194 7.72461 57.7905 7.57422C57.6616 7.42025 57.4342 7.34326 57.1084 7.34326C56.6429 7.34326 56.3206 7.56527 56.1416 8.00928L56.147 12H54.5947V8.29932C54.5947 7.96273 54.5285 7.71924 54.396 7.56885C54.2635 7.41846 54.0379 7.34326 53.7192 7.34326C53.2788 7.34326 52.9601 7.52588 52.7632 7.89111V12H51.2109V6.18848H52.6665ZM64.1069 12C64.0353 11.8604 63.9834 11.6867 63.9512 11.479C63.5752 11.8979 63.0864 12.1074 62.4848 12.1074C61.9155 12.1074 61.4429 11.9427 61.0669 11.6133C60.6945 11.2839 60.5083 10.8685 60.5083 10.3672C60.5083 9.7513 60.7357 9.27865 61.1904 8.94922C61.6487 8.61979 62.3094 8.45329 63.1723 8.44971H63.8867V8.1167C63.8867 7.84814 63.8169 7.6333 63.6772 7.47217C63.5412 7.31104 63.3245 7.23047 63.0273 7.23047C62.7659 7.23047 62.56 7.29313 62.4097 7.41846C62.2628 7.54378 62.1894 7.71566 62.1894 7.93408H60.6372C60.6372 7.59749 60.741 7.28597 60.9487 6.99951C61.1564 6.71305 61.45 6.48926 61.8296 6.32812C62.2091 6.16341 62.6352 6.08105 63.1079 6.08105C63.824 6.08105 64.3916 6.26188 64.8105 6.62354C65.2331 6.98161 65.4443 7.48649 65.4443 8.13818V10.6572C65.4479 11.2087 65.5249 11.6258 65.6753 11.9087V12H64.1069ZM62.8232 10.9204C63.0524 10.9204 63.2637 10.8703 63.457 10.77C63.6504 10.6662 63.7936 10.5283 63.8867 10.3564V9.35742H63.3066C62.5296 9.35742 62.116 9.62598 62.0659 10.1631L62.0605 10.2544C62.0605 10.4478 62.1286 10.6071 62.2646 10.7324C62.4007 10.8577 62.5869 10.9204 62.8232 10.9204ZM68.4951 4.75977V6.18848H69.4888V7.32715H68.4951V10.2275C68.4951 10.4424 68.5363 10.5964 68.6186 10.6895C68.701 10.7826 68.8585 10.8291 69.0913 10.8291C69.2632 10.8291 69.4153 10.8166 69.5478 10.7915V11.9678C69.2435 12.0609 68.9302 12.1074 68.6079 12.1074C67.5194 12.1074 66.9643 11.5578 66.9429 10.4585V7.32715H66.0942V6.18848H66.9429V4.75977H68.4951ZM71.9917 12H70.4341V6.18848H71.9917V12ZM70.3428 4.68457C70.3428 4.45182 70.4197 4.26025 70.5737 4.10986C70.7313 3.95947 70.9443 3.88428 71.2129 3.88428C71.4778 3.88428 71.6891 3.95947 71.8467 4.10986C72.0042 4.26025 72.083 4.45182 72.083 4.68457C72.083 4.9209 72.0024 5.11426 71.8413 5.26465C71.6837 5.41504 71.4743 5.49023 71.2129 5.49023C70.9515 5.49023 70.7402 5.41504 70.5791 5.26465C70.4215 5.11426 70.3428 4.9209 70.3428 4.68457ZM73.0337 9.04053C73.0337 8.46403 73.1447 7.9502 73.3667 7.49902C73.5887 7.04785 73.9074 6.69873 74.3227 6.45166C74.7417 6.20459 75.2269 6.08105 75.7783 6.08105C76.5625 6.08105 77.2016 6.32096 77.6958 6.80078C78.1935 7.2806 78.471 7.93229 78.5283 8.75586L78.539 9.15332C78.539 10.0449 78.2902 10.7611 77.7925 11.3018C77.2947 11.8389 76.6269 12.1074 75.789 12.1074C74.9512 12.1074 74.2816 11.8389 73.7803 11.3018C73.2825 10.7646 73.0337 10.0342 73.0337 9.11035V9.04053ZM74.5859 9.15332C74.5859 9.70475 74.6898 10.1273 74.8974 10.4209C75.1051 10.7109 75.4023 10.856 75.789 10.856C76.165 10.856 76.4586 10.7127 76.6699 10.4263C76.8812 10.1362 76.9868 9.67432 76.9868 9.04053C76.9868 8.49984 76.8812 8.08089 76.6699 7.78369C76.4586 7.48649 76.1614 7.33789 75.7783 7.33789C75.3987 7.33789 75.1051 7.48649 74.8974 7.78369C74.6898 8.07731 74.5859 8.53385 74.5859 9.15332ZM80.9238 6.18848L80.9722 6.85986C81.3875 6.34066 81.9443 6.08105 82.6426 6.08105C83.2584 6.08105 83.7168 6.26188 84.0176 6.62354C84.3183 6.98519 84.4723 7.52588 84.4795 8.24561V12H82.9272V8.2832C82.9272 7.95378 82.8556 7.71566 82.7124 7.56885C82.5692 7.41846 82.331 7.34326 81.998 7.34326C81.5612 7.34326 81.2335 7.52946 81.0151 7.90186V12H79.4629V6.18848H80.9238Z" fill="white"/>
<rect x="96.6677" y="1.52893" width="91.9903" height="14.9426" rx="7.47128" fill="#333333"/>
<path d="M119.965 12C119.893 11.8604 119.841 11.6867 119.809 11.479C119.433 11.8979 118.944 12.1074 118.343 12.1074C117.773 12.1074 117.301 11.9427 116.925 11.6133C116.552 11.2839 116.366 10.8685 116.366 10.3672C116.366 9.7513 116.593 9.27865 117.048 8.94922C117.506 8.61979 118.167 8.45329 119.03 8.44971H119.744V8.1167C119.744 7.84814 119.675 7.6333 119.535 7.47217C119.399 7.31104 119.182 7.23047 118.885 7.23047C118.624 7.23047 118.418 7.29313 118.267 7.41846C118.121 7.54378 118.047 7.71566 118.047 7.93408H116.495C116.495 7.59749 116.599 7.28597 116.806 6.99951C117.014 6.71305 117.308 6.48926 117.687 6.32812C118.067 6.16341 118.493 6.08105 118.966 6.08105C119.682 6.08105 120.249 6.26188 120.668 6.62354C121.091 6.98161 121.302 7.48649 121.302 8.13818V10.6572C121.306 11.2087 121.383 11.6258 121.533 11.9087V12H119.965ZM118.681 10.9204C118.91 10.9204 119.121 10.8703 119.315 10.77C119.508 10.6662 119.651 10.5283 119.744 10.3564V9.35742H119.164C118.387 9.35742 117.974 9.62598 117.924 10.1631L117.918 10.2544C117.918 10.4478 117.986 10.6071 118.122 10.7324C118.258 10.8577 118.445 10.9204 118.681 10.9204ZM127.726 9.14795C127.726 10.0431 127.522 10.7611 127.114 11.3018C126.709 11.8389 126.161 12.1074 125.47 12.1074C124.883 12.1074 124.408 11.9033 124.047 11.4951V14.2344H122.494V6.18848H123.934L123.988 6.75781C124.364 6.30664 124.854 6.08105 125.459 6.08105C126.175 6.08105 126.732 6.34603 127.13 6.87598C127.527 7.40592 127.726 8.13639 127.726 9.06738V9.14795ZM126.174 9.03516C126.174 8.49447 126.077 8.07731 125.884 7.78369C125.694 7.49007 125.416 7.34326 125.051 7.34326C124.564 7.34326 124.229 7.52946 124.047 7.90186V10.2812C124.236 10.6644 124.575 10.856 125.062 10.856C125.803 10.856 126.174 10.249 126.174 9.03516ZM130.331 12H128.773V6.18848H130.331V12ZM128.682 4.68457C128.682 4.45182 128.759 4.26025 128.913 4.10986C129.07 3.95947 129.283 3.88428 129.552 3.88428C129.817 3.88428 130.028 3.95947 130.186 4.10986C130.343 4.26025 130.422 4.45182 130.422 4.68457C130.422 4.9209 130.342 5.11426 130.18 5.26465C130.023 5.41504 129.813 5.49023 129.552 5.49023C129.291 5.49023 129.079 5.41504 128.918 5.26465C128.761 5.11426 128.682 4.9209 128.682 4.68457ZM134.633 9.27686H131.609V8.02539H134.633V9.27686ZM141.111 9.14795C141.111 10.0431 140.906 10.7611 140.498 11.3018C140.094 11.8389 139.546 12.1074 138.855 12.1074C138.267 12.1074 137.793 11.9033 137.431 11.4951V14.2344H135.879V6.18848H137.319L137.372 6.75781C137.748 6.30664 138.239 6.08105 138.844 6.08105C139.56 6.08105 140.117 6.34603 140.514 6.87598C140.912 7.40592 141.111 8.13639 141.111 9.06738V9.14795ZM139.558 9.03516C139.558 8.49447 139.462 8.07731 139.268 7.78369C139.079 7.49007 138.801 7.34326 138.436 7.34326C137.949 7.34326 137.614 7.52946 137.431 7.90186V10.2812C137.621 10.6644 137.96 10.856 138.447 10.856C139.188 10.856 139.558 10.249 139.558 9.03516ZM145.343 7.64404C145.132 7.6154 144.946 7.60107 144.784 7.60107C144.197 7.60107 143.812 7.7998 143.63 8.19727V12H142.077V6.18848H143.544L143.587 6.88135C143.898 6.34782 144.33 6.08105 144.881 6.08105C145.053 6.08105 145.214 6.10433 145.364 6.15088L145.343 7.64404ZM147.733 12H146.176V6.18848H147.733V12ZM146.084 4.68457C146.084 4.45182 146.161 4.26025 146.315 4.10986C146.473 3.95947 146.686 3.88428 146.954 3.88428C147.219 3.88428 147.431 3.95947 147.588 4.10986C147.746 4.26025 147.824 4.45182 147.824 4.68457C147.824 4.9209 147.744 5.11426 147.583 5.26465C147.425 5.41504 147.216 5.49023 146.954 5.49023C146.693 5.49023 146.482 5.41504 146.321 5.26465C146.163 5.11426 146.084 4.9209 146.084 4.68457ZM151.434 10.856C151.72 10.856 151.953 10.7772 152.132 10.6196C152.311 10.4621 152.404 10.2526 152.411 9.99121H153.867C153.863 10.3851 153.756 10.7467 153.545 11.0762C153.333 11.402 153.043 11.6562 152.675 11.8389C152.309 12.0179 151.905 12.1074 151.461 12.1074C150.63 12.1074 149.975 11.8442 149.495 11.3179C149.015 10.7879 148.775 10.0575 148.775 9.12646V9.02441C148.775 8.12923 149.013 7.41488 149.489 6.88135C149.966 6.34782 150.619 6.08105 151.45 6.08105C152.177 6.08105 152.759 6.28874 153.196 6.7041C153.636 7.11589 153.86 7.66553 153.867 8.35303H152.411C152.404 8.05225 152.311 7.80876 152.132 7.62256C151.953 7.43278 151.717 7.33789 151.423 7.33789C151.061 7.33789 150.788 7.47038 150.601 7.73535C150.419 7.99674 150.327 8.42285 150.327 9.01367V9.1748C150.327 9.77279 150.419 10.2025 150.601 10.4639C150.784 10.7253 151.061 10.856 151.434 10.856ZM156.391 12H154.834V6.18848H156.391V12ZM154.742 4.68457C154.742 4.45182 154.819 4.26025 154.973 4.10986C155.131 3.95947 155.344 3.88428 155.613 3.88428C155.878 3.88428 156.089 3.95947 156.246 4.10986C156.404 4.26025 156.483 4.45182 156.483 4.68457C156.483 4.9209 156.402 5.11426 156.241 5.26465C156.083 5.41504 155.874 5.49023 155.613 5.49023C155.351 5.49023 155.14 5.41504 154.979 5.26465C154.821 5.11426 154.742 4.9209 154.742 4.68457ZM159.104 6.18848L159.152 6.85986C159.567 6.34066 160.124 6.08105 160.822 6.08105C161.438 6.08105 161.897 6.26188 162.197 6.62354C162.498 6.98519 162.652 7.52588 162.659 8.24561V12H161.107V8.2832C161.107 7.95378 161.036 7.71566 160.892 7.56885C160.749 7.41846 160.511 7.34326 160.178 7.34326C159.741 7.34326 159.413 7.52946 159.195 7.90186V12H157.643V6.18848H159.104ZM163.615 9.05127C163.615 8.15967 163.827 7.44173 164.249 6.89746C164.675 6.35319 165.248 6.08105 165.968 6.08105C166.605 6.08105 167.101 6.29948 167.456 6.73633L167.52 6.18848H168.927V11.8066C168.927 12.3151 168.811 12.7573 168.578 13.1333C168.349 13.5093 168.025 13.7957 167.606 13.9927C167.187 14.1896 166.697 14.2881 166.135 14.2881C165.708 14.2881 165.293 14.2021 164.888 14.0303C164.484 13.862 164.178 13.6436 163.97 13.375L164.657 12.4297C165.044 12.863 165.513 13.0796 166.065 13.0796C166.476 13.0796 166.797 12.9686 167.026 12.7466C167.255 12.5282 167.37 12.2166 167.37 11.812V11.5005C167.012 11.9051 166.541 12.1074 165.957 12.1074C165.259 12.1074 164.693 11.8353 164.26 11.291C163.83 10.7432 163.615 10.0181 163.615 9.11572V9.05127ZM165.168 9.16406C165.168 9.69043 165.273 10.104 165.485 10.4048C165.696 10.702 165.986 10.8506 166.355 10.8506C166.827 10.8506 167.166 10.6733 167.37 10.3188V7.875C167.162 7.52051 166.827 7.34326 166.365 7.34326C165.993 7.34326 165.699 7.49544 165.485 7.7998C165.273 8.10417 165.168 8.55892 165.168 9.16406Z" fill="white"/>
<rect x="193.335" y="1.52893" width="91.9903" height="14.9426" rx="7.47128" fill="#333333"/>
<path d="M214.774 12C214.703 11.8604 214.651 11.6867 214.619 11.479C214.243 11.8979 213.754 12.1074 213.152 12.1074C212.583 12.1074 212.11 11.9427 211.734 11.6133C211.362 11.2839 211.176 10.8685 211.176 10.3672C211.176 9.7513 211.403 9.27865 211.858 8.94922C212.316 8.61979 212.977 8.45329 213.84 8.44971H214.554V8.1167C214.554 7.84814 214.484 7.6333 214.345 7.47217C214.209 7.31104 213.992 7.23047 213.695 7.23047C213.433 7.23047 213.228 7.29313 213.077 7.41846C212.93 7.54378 212.857 7.71566 212.857 7.93408H211.305C211.305 7.59749 211.408 7.28597 211.616 6.99951C211.824 6.71305 212.117 6.48926 212.497 6.32812C212.877 6.16341 213.303 6.08105 213.775 6.08105C214.492 6.08105 215.059 6.26188 215.478 6.62354C215.901 6.98161 216.112 7.48649 216.112 8.13818V10.6572C216.115 11.2087 216.192 11.6258 216.343 11.9087V12H214.774ZM213.491 10.9204C213.72 10.9204 213.931 10.8703 214.124 10.77C214.318 10.6662 214.461 10.5283 214.554 10.3564V9.35742H213.974C213.197 9.35742 212.783 9.62598 212.733 10.1631L212.728 10.2544C212.728 10.4478 212.796 10.6071 212.932 10.7324C213.068 10.8577 213.254 10.9204 213.491 10.9204ZM222.536 9.14795C222.536 10.0431 222.332 10.7611 221.923 11.3018C221.519 11.8389 220.971 12.1074 220.28 12.1074C219.693 12.1074 219.218 11.9033 218.856 11.4951V14.2344H217.304V6.18848H218.744L218.797 6.75781C219.173 6.30664 219.664 6.08105 220.269 6.08105C220.985 6.08105 221.542 6.34603 221.939 6.87598C222.337 7.40592 222.536 8.13639 222.536 9.06738V9.14795ZM220.983 9.03516C220.983 8.49447 220.887 8.07731 220.693 7.78369C220.504 7.49007 220.226 7.34326 219.861 7.34326C219.374 7.34326 219.039 7.52946 218.856 7.90186V10.2812C219.046 10.6644 219.385 10.856 219.872 10.856C220.613 10.856 220.983 10.249 220.983 9.03516ZM225.141 12H223.583V6.18848H225.141V12ZM223.492 4.68457C223.492 4.45182 223.569 4.26025 223.723 4.10986C223.88 3.95947 224.093 3.88428 224.362 3.88428C224.627 3.88428 224.838 3.95947 224.996 4.10986C225.153 4.26025 225.232 4.45182 225.232 4.68457C225.232 4.9209 225.151 5.11426 224.99 5.26465C224.833 5.41504 224.623 5.49023 224.362 5.49023C224.1 5.49023 223.889 5.41504 223.728 5.26465C223.57 5.11426 223.492 4.9209 223.492 4.68457ZM229.443 9.27686H226.419V8.02539H229.443V9.27686ZM235.92 9.14795C235.92 10.0431 235.716 10.7611 235.308 11.3018C234.903 11.8389 234.356 12.1074 233.665 12.1074C233.077 12.1074 232.603 11.9033 232.241 11.4951V14.2344H230.689V6.18848H232.128L232.182 6.75781C232.558 6.30664 233.049 6.08105 233.654 6.08105C234.37 6.08105 234.927 6.34603 235.324 6.87598C235.722 7.40592 235.92 8.13639 235.92 9.06738V9.14795ZM234.368 9.03516C234.368 8.49447 234.271 8.07731 234.078 7.78369C233.888 7.49007 233.611 7.34326 233.246 7.34326C232.759 7.34326 232.424 7.52946 232.241 7.90186V10.2812C232.431 10.6644 232.769 10.856 233.256 10.856C233.998 10.856 234.368 10.249 234.368 9.03516ZM240.153 7.64404C239.942 7.6154 239.755 7.60107 239.594 7.60107C239.007 7.60107 238.622 7.7998 238.439 8.19727V12H236.887V6.18848H238.353L238.396 6.88135C238.708 6.34782 239.139 6.08105 239.691 6.08105C239.863 6.08105 240.024 6.10433 240.174 6.15088L240.153 7.64404ZM240.47 9.04053C240.47 8.46403 240.581 7.9502 240.803 7.49902C241.025 7.04785 241.343 6.69873 241.759 6.45166C242.178 6.20459 242.663 6.08105 243.214 6.08105C243.999 6.08105 244.638 6.32096 245.132 6.80078C245.63 7.2806 245.907 7.93229 245.964 8.75586L245.975 9.15332C245.975 10.0449 245.726 10.7611 245.228 11.3018C244.731 11.8389 244.063 12.1074 243.225 12.1074C242.387 12.1074 241.718 11.8389 241.216 11.3018C240.719 10.7646 240.47 10.0342 240.47 9.11035V9.04053ZM242.022 9.15332C242.022 9.70475 242.126 10.1273 242.333 10.4209C242.541 10.7109 242.838 10.856 243.225 10.856C243.601 10.856 243.895 10.7127 244.106 10.4263C244.317 10.1362 244.423 9.67432 244.423 9.04053C244.423 8.49984 244.317 8.08089 244.106 7.78369C243.895 7.48649 243.597 7.33789 243.214 7.33789C242.835 7.33789 242.541 7.48649 242.333 7.78369C242.126 8.07731 242.022 8.53385 242.022 9.15332ZM246.689 9.05127C246.689 8.14535 246.892 7.42383 247.296 6.88672C247.705 6.34961 248.261 6.08105 248.967 6.08105C249.533 6.08105 250 6.29232 250.369 6.71484V3.75H251.926V12H250.524L250.449 11.3823C250.062 11.8657 249.565 12.1074 248.956 12.1074C248.272 12.1074 247.722 11.8389 247.307 11.3018C246.895 10.7611 246.689 10.0109 246.689 9.05127ZM248.242 9.16406C248.242 9.70833 248.337 10.1255 248.526 10.4155C248.716 10.7056 248.992 10.8506 249.353 10.8506C249.833 10.8506 250.172 10.6483 250.369 10.2437V7.9502C250.175 7.54557 249.84 7.34326 249.364 7.34326C248.616 7.34326 248.242 7.9502 248.242 9.16406ZM256.61 11.4092C256.227 11.8747 255.697 12.1074 255.02 12.1074C254.397 12.1074 253.921 11.9284 253.591 11.5703C253.265 11.2122 253.099 10.6877 253.092 9.99658V6.18848H254.644V9.94287C254.644 10.548 254.92 10.8506 255.471 10.8506C255.998 10.8506 256.359 10.668 256.556 10.3027V6.18848H258.114V12H256.653L256.61 11.4092ZM261.702 10.856C261.988 10.856 262.221 10.7772 262.4 10.6196C262.579 10.4621 262.672 10.2526 262.679 9.99121H264.135C264.131 10.3851 264.024 10.7467 263.812 11.0762C263.601 11.402 263.311 11.6562 262.942 11.8389C262.577 12.0179 262.172 12.1074 261.728 12.1074C260.898 12.1074 260.242 11.8442 259.763 11.3179C259.283 10.7879 259.043 10.0575 259.043 9.12646V9.02441C259.043 8.12923 259.281 7.41488 259.757 6.88135C260.234 6.34782 260.887 6.08105 261.718 6.08105C262.445 6.08105 263.026 6.28874 263.463 6.7041C263.904 7.11589 264.128 7.66553 264.135 8.35303H262.679C262.672 8.05225 262.579 7.80876 262.4 7.62256C262.221 7.43278 261.985 7.33789 261.691 7.33789C261.329 7.33789 261.055 7.47038 260.869 7.73535C260.686 7.99674 260.595 8.42285 260.595 9.01367V9.1748C260.595 9.77279 260.686 10.2025 260.869 10.4639C261.052 10.7253 261.329 10.856 261.702 10.856ZM266.879 4.75977V6.18848H267.873V7.32715H266.879V10.2275C266.879 10.4424 266.921 10.5964 267.003 10.6895C267.085 10.7826 267.243 10.8291 267.476 10.8291C267.647 10.8291 267.8 10.8166 267.932 10.7915V11.9678C267.628 12.0609 267.314 12.1074 266.992 12.1074C265.904 12.1074 265.349 11.5578 265.327 10.4585V7.32715H264.478V6.18848H265.327V4.75977H266.879Z" fill="white"/>
<rect x="291.562" y="0.515259" width="91.9903" height="14.9426" rx="7.47128" fill="#333333"/>
<path d="M317.625 11C317.553 10.8604 317.501 10.6867 317.469 10.479C317.093 10.8979 316.604 11.1074 316.003 11.1074C315.433 11.1074 314.961 10.9427 314.585 10.6133C314.212 10.2839 314.026 9.86849 314.026 9.36719C314.026 8.7513 314.254 8.27865 314.708 7.94922C315.167 7.61979 315.827 7.45329 316.69 7.44971H317.405V7.1167C317.405 6.84814 317.335 6.6333 317.195 6.47217C317.059 6.31104 316.842 6.23047 316.545 6.23047C316.284 6.23047 316.078 6.29313 315.928 6.41846C315.781 6.54378 315.707 6.71566 315.707 6.93408H314.155C314.155 6.59749 314.259 6.28597 314.467 5.99951C314.674 5.71305 314.968 5.48926 315.347 5.32812C315.727 5.16341 316.153 5.08105 316.626 5.08105C317.342 5.08105 317.909 5.26188 318.328 5.62354C318.751 5.98161 318.962 6.48649 318.962 7.13818V9.65723C318.966 10.2087 319.043 10.6258 319.193 10.9087V11H317.625ZM316.341 9.92041C316.57 9.92041 316.782 9.87028 316.975 9.77002C317.168 9.66618 317.311 9.52832 317.405 9.35645V8.35742H316.824C316.047 8.35742 315.634 8.62598 315.584 9.16309L315.578 9.25439C315.578 9.44775 315.646 9.6071 315.783 9.73242C315.919 9.85775 316.105 9.92041 316.341 9.92041ZM325.386 8.14795C325.386 9.04313 325.182 9.76107 324.774 10.3018C324.369 10.8389 323.821 11.1074 323.13 11.1074C322.543 11.1074 322.068 10.9033 321.707 10.4951V13.2344H320.155V5.18848H321.594L321.648 5.75781C322.024 5.30664 322.514 5.08105 323.119 5.08105C323.836 5.08105 324.392 5.34603 324.79 5.87598C325.187 6.40592 325.386 7.13639 325.386 8.06738V8.14795ZM323.834 8.03516C323.834 7.49447 323.737 7.07731 323.544 6.78369C323.354 6.49007 323.076 6.34326 322.711 6.34326C322.224 6.34326 321.889 6.52946 321.707 6.90186V9.28125C321.897 9.66439 322.235 9.85596 322.722 9.85596C323.463 9.85596 323.834 9.24902 323.834 8.03516ZM327.991 11H326.433V5.18848H327.991V11ZM326.342 3.68457C326.342 3.45182 326.419 3.26025 326.573 3.10986C326.731 2.95947 326.944 2.88428 327.212 2.88428C327.477 2.88428 327.688 2.95947 327.846 3.10986C328.004 3.26025 328.082 3.45182 328.082 3.68457C328.082 3.9209 328.002 4.11426 327.841 4.26465C327.683 4.41504 327.474 4.49023 327.212 4.49023C326.951 4.49023 326.74 4.41504 326.578 4.26465C326.421 4.11426 326.342 3.9209 326.342 3.68457ZM332.293 8.27686H329.269V7.02539H332.293V8.27686ZM336.805 6.64404C336.594 6.6154 336.408 6.60107 336.246 6.60107C335.659 6.60107 335.274 6.7998 335.092 7.19727V11H333.539V5.18848H335.006L335.049 5.88135C335.36 5.34782 335.792 5.08105 336.343 5.08105C336.515 5.08105 336.676 5.10433 336.826 5.15088L336.805 6.64404ZM340.763 11C340.692 10.8604 340.64 10.6867 340.608 10.479C340.232 10.8979 339.743 11.1074 339.141 11.1074C338.572 11.1074 338.099 10.9427 337.723 10.6133C337.351 10.2839 337.165 9.86849 337.165 9.36719C337.165 8.7513 337.392 8.27865 337.847 7.94922C338.305 7.61979 338.966 7.45329 339.829 7.44971H340.543V7.1167C340.543 6.84814 340.473 6.6333 340.334 6.47217C340.198 6.31104 339.981 6.23047 339.684 6.23047C339.422 6.23047 339.217 6.29313 339.066 6.41846C338.919 6.54378 338.846 6.71566 338.846 6.93408H337.294C337.294 6.59749 337.398 6.28597 337.605 5.99951C337.813 5.71305 338.107 5.48926 338.486 5.32812C338.866 5.16341 339.292 5.08105 339.764 5.08105C340.481 5.08105 341.048 5.26188 341.467 5.62354C341.89 5.98161 342.101 6.48649 342.101 7.13818V9.65723C342.104 10.2087 342.181 10.6258 342.332 10.9087V11H340.763ZM339.48 9.92041C339.709 9.92041 339.92 9.87028 340.114 9.77002C340.307 9.66618 340.45 9.52832 340.543 9.35645V8.35742H339.963C339.186 8.35742 338.773 8.62598 338.722 9.16309L338.717 9.25439C338.717 9.44775 338.785 9.6071 338.921 9.73242C339.057 9.85775 339.243 9.92041 339.48 9.92041ZM345.152 3.75977V5.18848H346.145V6.32715H345.152V9.22754C345.152 9.44238 345.193 9.59635 345.275 9.68945C345.358 9.78255 345.515 9.8291 345.748 9.8291C345.92 9.8291 346.072 9.81657 346.204 9.7915V10.9678C345.9 11.0609 345.587 11.1074 345.264 11.1074C344.176 11.1074 343.621 10.5578 343.599 9.4585V6.32715H342.751V5.18848H343.599V3.75977H345.152ZM348.648 11H347.091V5.18848H348.648V11ZM346.999 3.68457C346.999 3.45182 347.076 3.26025 347.23 3.10986C347.388 2.95947 347.601 2.88428 347.869 2.88428C348.134 2.88428 348.346 2.95947 348.503 3.10986C348.661 3.26025 348.74 3.45182 348.74 3.68457C348.74 3.9209 348.659 4.11426 348.498 4.26465C348.34 4.41504 348.131 4.49023 347.869 4.49023C347.608 4.49023 347.397 4.41504 347.236 4.26465C347.078 4.11426 346.999 3.9209 346.999 3.68457ZM351.361 5.18848L351.409 5.85986C351.824 5.34066 352.381 5.08105 353.079 5.08105C353.695 5.08105 354.154 5.26188 354.454 5.62354C354.755 5.98519 354.909 6.52588 354.916 7.24561V11H353.364V7.2832C353.364 6.95378 353.292 6.71566 353.149 6.56885C353.006 6.41846 352.768 6.34326 352.435 6.34326C351.998 6.34326 351.67 6.52946 351.452 6.90186V11H349.9V5.18848H351.361ZM355.872 8.05127C355.872 7.15967 356.084 6.44173 356.506 5.89746C356.932 5.35319 357.505 5.08105 358.225 5.08105C358.862 5.08105 359.358 5.29948 359.713 5.73633L359.777 5.18848H361.184V10.8066C361.184 11.3151 361.068 11.7573 360.835 12.1333C360.606 12.5093 360.282 12.7957 359.863 12.9927C359.444 13.1896 358.954 13.2881 358.391 13.2881C357.965 13.2881 357.55 13.2021 357.145 13.0303C356.741 12.862 356.435 12.6436 356.227 12.375L356.914 11.4297C357.301 11.863 357.77 12.0796 358.322 12.0796C358.733 12.0796 359.054 11.9686 359.283 11.7466C359.512 11.5282 359.627 11.2166 359.627 10.812V10.5005C359.269 10.9051 358.798 11.1074 358.214 11.1074C357.516 11.1074 356.95 10.8353 356.517 10.291C356.087 9.74316 355.872 9.01807 355.872 8.11572V8.05127ZM357.425 8.16406C357.425 8.69043 357.53 9.104 357.741 9.40479C357.953 9.70199 358.243 9.85059 358.612 9.85059C359.084 9.85059 359.423 9.67334 359.627 9.31885V6.875C359.419 6.52051 359.084 6.34326 358.622 6.34326C358.25 6.34326 357.956 6.49544 357.741 6.7998C357.53 7.10417 357.425 7.55892 357.425 8.16406Z" fill="white"/>
<rect x="389.01" y="0.515259" width="91.9903" height="14.9426" rx="7.47128" fill="#333333"/>
<path d="M418.819 11C418.747 10.8604 418.695 10.6867 418.663 10.479C418.287 10.8979 417.798 11.1074 417.197 11.1074C416.627 11.1074 416.155 10.9427 415.779 10.6133C415.406 10.2839 415.22 9.86849 415.22 9.36719C415.22 8.7513 415.448 8.27865 415.902 7.94922C416.361 7.61979 417.021 7.45329 417.884 7.44971H418.599V7.1167C418.599 6.84814 418.529 6.6333 418.389 6.47217C418.253 6.31104 418.036 6.23047 417.739 6.23047C417.478 6.23047 417.272 6.29313 417.122 6.41846C416.975 6.54378 416.901 6.71566 416.901 6.93408H415.349C415.349 6.59749 415.453 6.28597 415.661 5.99951C415.868 5.71305 416.162 5.48926 416.541 5.32812C416.921 5.16341 417.347 5.08105 417.82 5.08105C418.536 5.08105 419.104 5.26188 419.522 5.62354C419.945 5.98161 420.156 6.48649 420.156 7.13818V9.65723C420.16 10.2087 420.237 10.6258 420.387 10.9087V11H418.819ZM417.535 9.92041C417.764 9.92041 417.976 9.87028 418.169 9.77002C418.362 9.66618 418.506 9.52832 418.599 9.35645V8.35742H418.019C417.242 8.35742 416.828 8.62598 416.778 9.16309L416.772 9.25439C416.772 9.44775 416.84 9.6071 416.977 9.73242C417.113 9.85775 417.299 9.92041 417.535 9.92041ZM426.58 8.14795C426.58 9.04313 426.376 9.76107 425.968 10.3018C425.563 10.8389 425.015 11.1074 424.324 11.1074C423.737 11.1074 423.263 10.9033 422.901 10.4951V13.2344H421.349V5.18848H422.788L422.842 5.75781C423.218 5.30664 423.708 5.08105 424.313 5.08105C425.03 5.08105 425.586 5.34603 425.984 5.87598C426.381 6.40592 426.58 7.13639 426.58 8.06738V8.14795ZM425.028 8.03516C425.028 7.49447 424.931 7.07731 424.738 6.78369C424.548 6.49007 424.27 6.34326 423.905 6.34326C423.418 6.34326 423.083 6.52946 422.901 6.90186V9.28125C423.091 9.66439 423.429 9.85596 423.916 9.85596C424.657 9.85596 425.028 9.24902 425.028 8.03516ZM429.185 11H427.627V5.18848H429.185V11ZM427.536 3.68457C427.536 3.45182 427.613 3.26025 427.767 3.10986C427.925 2.95947 428.138 2.88428 428.406 2.88428C428.671 2.88428 428.882 2.95947 429.04 3.10986C429.198 3.26025 429.276 3.45182 429.276 3.68457C429.276 3.9209 429.196 4.11426 429.035 4.26465C428.877 4.41504 428.668 4.49023 428.406 4.49023C428.145 4.49023 427.934 4.41504 427.772 4.26465C427.615 4.11426 427.536 3.9209 427.536 3.68457ZM433.487 8.27686H430.463V7.02539H433.487V8.27686ZM438.101 11C438.029 10.8604 437.978 10.6867 437.945 10.479C437.569 10.8979 437.081 11.1074 436.479 11.1074C435.91 11.1074 435.437 10.9427 435.061 10.6133C434.689 10.2839 434.502 9.86849 434.502 9.36719C434.502 8.7513 434.73 8.27865 435.185 7.94922C435.643 7.61979 436.304 7.45329 437.166 7.44971H437.881V7.1167C437.881 6.84814 437.811 6.6333 437.671 6.47217C437.535 6.31104 437.319 6.23047 437.021 6.23047C436.76 6.23047 436.554 6.29313 436.404 6.41846C436.257 6.54378 436.184 6.71566 436.184 6.93408H434.631C434.631 6.59749 434.735 6.28597 434.943 5.99951C435.151 5.71305 435.444 5.48926 435.824 5.32812C436.203 5.16341 436.629 5.08105 437.102 5.08105C437.818 5.08105 438.386 5.26188 438.805 5.62354C439.227 5.98161 439.438 6.48649 439.438 7.13818V9.65723C439.442 10.2087 439.519 10.6258 439.669 10.9087V11H438.101ZM436.817 9.92041C437.047 9.92041 437.258 9.87028 437.451 9.77002C437.645 9.66618 437.788 9.52832 437.881 9.35645V8.35742H437.301C436.524 8.35742 436.11 8.62598 436.06 9.16309L436.055 9.25439C436.055 9.44775 436.123 9.6071 436.259 9.73242C436.395 9.85775 436.581 9.92041 436.817 9.92041ZM444.111 10.4092C443.728 10.8747 443.198 11.1074 442.521 11.1074C441.898 11.1074 441.422 10.9284 441.093 10.5703C440.767 10.2122 440.6 9.68766 440.593 8.99658V5.18848H442.145V8.94287C442.145 9.54801 442.421 9.85059 442.973 9.85059C443.499 9.85059 443.861 9.66797 444.058 9.30273V5.18848H445.615V11H444.154L444.111 10.4092ZM448.645 3.75977V5.18848H449.638V6.32715H448.645V9.22754C448.645 9.44238 448.686 9.59635 448.768 9.68945C448.85 9.78255 449.008 9.8291 449.241 9.8291C449.413 9.8291 449.565 9.81657 449.697 9.7915V10.9678C449.393 11.0609 449.08 11.1074 448.757 11.1074C447.669 11.1074 447.114 10.5578 447.092 9.4585V6.32715H446.244V5.18848H447.092V3.75977H448.645ZM452.018 5.82227C452.429 5.32812 452.947 5.08105 453.57 5.08105C454.83 5.08105 455.469 5.81331 455.487 7.27783V11H453.935V7.3208C453.935 6.98779 453.863 6.74251 453.72 6.58496C453.577 6.42383 453.339 6.34326 453.006 6.34326C452.551 6.34326 452.222 6.51872 452.018 6.86963V11H450.465V2.75H452.018V5.82227Z" fill="white"/>
</svg>
