<svg width="179" height="55" viewBox="0 0 179 55" fill="none" xmlns="http://www.w3.org/2000/svg">
<rect y="36.5913" width="178.585" height="17.7403" rx="8.87014" fill="#5AD5FF"/>
<path d="M47.1732 43.2803L45.1087 42.665L45.4232 41.6328L47.4876 42.3984L47.4261 40.0469H48.472L48.4037 42.4326L50.4339 41.6807L50.7484 42.7197L48.6497 43.3418L50.0033 45.1943L49.1556 45.8369L47.8841 43.8682L46.6537 45.7891L45.7992 45.167L47.1732 43.2803ZM51.931 49.3369C51.931 49.1182 51.9948 48.9359 52.1224 48.79C52.2546 48.6442 52.4505 48.5713 52.7103 48.5713C52.9701 48.5713 53.166 48.6442 53.2982 48.79C53.4349 48.9359 53.5033 49.1182 53.5033 49.3369C53.5033 49.5465 53.4349 49.722 53.2982 49.8633C53.166 50.0046 52.9701 50.0752 52.7103 50.0752C52.4505 50.0752 52.2546 50.0046 52.1224 49.8633C51.9948 49.722 51.931 49.5465 51.931 49.3369ZM57.3109 40.8125V42.6035H58.6917V43.5811H57.3109V48.168C57.3109 48.4642 57.3724 48.6875 57.4955 48.8379C57.6185 48.9837 57.8281 49.0566 58.1244 49.0566C58.2702 49.0566 58.4707 49.0293 58.7259 48.9746V50C58.3932 50.0911 58.0697 50.1367 57.7552 50.1367C57.1901 50.1367 56.764 49.9658 56.4769 49.624C56.1898 49.2822 56.0462 48.7969 56.0462 48.168V43.5811H54.6996V42.6035H56.0462V40.8125H57.3109ZM63.7503 43.7383C63.5589 43.7064 63.3516 43.6904 63.1283 43.6904C62.2988 43.6904 61.736 44.0436 61.4398 44.75V50H60.1751V42.6035H61.4056L61.4261 43.458C61.8408 42.7972 62.4287 42.4668 63.1898 42.4668C63.4359 42.4668 63.6227 42.4987 63.7503 42.5625V43.7383ZM69.2122 50C69.1393 49.8542 69.0801 49.5944 69.0345 49.2207C68.4466 49.8314 67.7448 50.1367 66.929 50.1367C66.1999 50.1367 65.6006 49.9316 65.1312 49.5215C64.6664 49.1068 64.4339 48.5827 64.4339 47.9492C64.4339 47.179 64.7256 46.582 65.3089 46.1582C65.8968 45.7298 66.7217 45.5156 67.7835 45.5156H69.014V44.9346C69.014 44.4925 68.8818 44.1416 68.6175 43.8818C68.3532 43.6175 67.9636 43.4854 67.4486 43.4854C66.9974 43.4854 66.6192 43.5993 66.3138 43.8271C66.0085 44.055 65.8558 44.3307 65.8558 44.6543H64.5843C64.5843 44.2852 64.7142 43.9297 64.974 43.5879C65.2383 43.2415 65.5938 42.9681 66.0404 42.7676C66.4915 42.5671 66.986 42.4668 67.5238 42.4668C68.376 42.4668 69.0436 42.681 69.5267 43.1094C70.0098 43.5332 70.2604 44.1188 70.2787 44.8662V48.2705C70.2787 48.9495 70.3652 49.4896 70.5384 49.8906V50H69.2122ZM67.1136 49.0361C67.5101 49.0361 67.8861 48.9336 68.2415 48.7285C68.597 48.5234 68.8545 48.2568 69.014 47.9287V46.4111H68.0228C66.4733 46.4111 65.6986 46.8646 65.6986 47.7715C65.6986 48.168 65.8307 48.4779 66.0951 48.7012C66.3594 48.9245 66.6989 49.0361 67.1136 49.0361ZM73.6351 50H72.3705V42.6035H73.6351V50ZM72.2679 40.6416C72.2679 40.4365 72.3294 40.2633 72.4525 40.1221C72.5801 39.9808 72.7669 39.9102 73.013 39.9102C73.2591 39.9102 73.446 39.9808 73.5736 40.1221C73.7012 40.2633 73.765 40.4365 73.765 40.6416C73.765 40.8467 73.7012 41.0176 73.5736 41.1543C73.446 41.291 73.2591 41.3594 73.013 41.3594C72.7669 41.3594 72.5801 41.291 72.4525 41.1543C72.3294 41.0176 72.2679 40.8467 72.2679 40.6416ZM76.8617 42.6035L76.9027 43.5332C77.4678 42.8223 78.2061 42.4668 79.1175 42.4668C80.6807 42.4668 81.4691 43.3486 81.4828 45.1123V50H80.2181V45.1055C80.2136 44.5723 80.0905 44.1781 79.849 43.9229C79.612 43.6676 79.2406 43.54 78.7347 43.54C78.3246 43.54 77.9645 43.6494 77.6546 43.8682C77.3447 44.0869 77.1032 44.374 76.93 44.7295V50H75.6654V42.6035H76.8617ZM84.764 50H83.4994V42.6035H84.764V50ZM83.3968 40.6416C83.3968 40.4365 83.4583 40.2633 83.5814 40.1221C83.709 39.9808 83.8958 39.9102 84.1419 39.9102C84.388 39.9102 84.5749 39.9808 84.7025 40.1221C84.8301 40.2633 84.8939 40.4365 84.8939 40.6416C84.8939 40.8467 84.8301 41.0176 84.7025 41.1543C84.5749 41.291 84.388 41.3594 84.1419 41.3594C83.8958 41.3594 83.709 41.291 83.5814 41.1543C83.4583 41.0176 83.3968 40.8467 83.3968 40.6416ZM87.9906 42.6035L88.0316 43.5332C88.5967 42.8223 89.335 42.4668 90.2464 42.4668C91.8096 42.4668 92.598 43.3486 92.6117 45.1123V50H91.347V45.1055C91.3425 44.5723 91.2194 44.1781 90.9779 43.9229C90.7409 43.6676 90.3695 43.54 89.8636 43.54C89.4535 43.54 89.0934 43.6494 88.7835 43.8682C88.4736 44.0869 88.2321 44.374 88.0589 44.7295V50H86.7943V42.6035H87.9906ZM94.2181 46.2402C94.2181 45.0872 94.4847 44.1712 95.0179 43.4922C95.5511 42.8086 96.2575 42.4668 97.1371 42.4668C98.0394 42.4668 98.7435 42.7858 99.2494 43.4238L99.3109 42.6035H100.466V49.8223C100.466 50.7793 100.181 51.5335 99.6117 52.085C99.0466 52.6364 98.2855 52.9121 97.3285 52.9121C96.7953 52.9121 96.2734 52.7982 95.763 52.5703C95.2526 52.3424 94.863 52.0303 94.5941 51.6338L95.2503 50.875C95.7927 51.5449 96.4557 51.8799 97.2396 51.8799C97.8548 51.8799 98.3333 51.7067 98.6751 51.3604C99.0215 51.014 99.1947 50.5264 99.1947 49.8975V49.2617C98.6888 49.8451 97.9984 50.1367 97.1234 50.1367C96.2575 50.1367 95.5557 49.7881 95.0179 49.0908C94.4847 48.3936 94.2181 47.4434 94.2181 46.2402ZM95.4896 46.3838C95.4896 47.2178 95.6605 47.874 96.0023 48.3525C96.3441 48.8265 96.8226 49.0635 97.4378 49.0635C98.2354 49.0635 98.821 48.7012 99.1947 47.9766V44.5996C98.8073 43.8932 98.2262 43.54 97.4515 43.54C96.8363 43.54 96.3555 43.7793 96.0091 44.2578C95.6628 44.7363 95.4896 45.445 95.4896 46.3838ZM102.408 49.3369C102.408 49.1182 102.471 48.9359 102.599 48.79C102.731 48.6442 102.927 48.5713 103.187 48.5713C103.447 48.5713 103.643 48.6442 103.775 48.79C103.911 48.9359 103.98 49.1182 103.98 49.3369C103.98 49.5465 103.911 49.722 103.775 49.8633C103.643 50.0046 103.447 50.0752 103.187 50.0752C102.927 50.0752 102.731 50.0046 102.599 49.8633C102.471 49.722 102.408 49.5465 102.408 49.3369ZM107.446 50H106.181V39.5H107.446V50ZM109.141 46.2334C109.141 45.5088 109.282 44.8571 109.565 44.2783C109.852 43.6995 110.248 43.2529 110.754 42.9385C111.265 42.624 111.846 42.4668 112.497 42.4668C113.505 42.4668 114.318 42.8154 114.938 43.5127C115.562 44.21 115.874 45.1374 115.874 46.2949V46.3838C115.874 47.1038 115.735 47.751 115.457 48.3252C115.184 48.8949 114.79 49.3392 114.275 49.6582C113.764 49.9772 113.176 50.1367 112.511 50.1367C111.508 50.1367 110.695 49.7881 110.071 49.0908C109.451 48.3936 109.141 47.4707 109.141 46.3223V46.2334ZM110.412 46.3838C110.412 47.2041 110.602 47.8626 110.98 48.3594C111.363 48.8561 111.873 49.1045 112.511 49.1045C113.154 49.1045 113.664 48.8538 114.042 48.3525C114.421 47.8467 114.61 47.1403 114.61 46.2334C114.61 45.4222 114.416 44.766 114.029 44.2646C113.646 43.7588 113.135 43.5059 112.497 43.5059C111.873 43.5059 111.369 43.7542 110.987 44.251C110.604 44.7477 110.412 45.4587 110.412 46.3838ZM120.427 49.1045C120.878 49.1045 121.272 48.9678 121.61 48.6943C121.947 48.4209 122.134 48.0791 122.17 47.6689H123.367C123.344 48.0928 123.198 48.4961 122.929 48.8789C122.66 49.2617 122.3 49.5671 121.849 49.7949C121.402 50.0228 120.928 50.1367 120.427 50.1367C119.42 50.1367 118.618 49.8018 118.021 49.1318C117.428 48.4574 117.132 47.5368 117.132 46.3701V46.1582C117.132 45.4382 117.264 44.7979 117.529 44.2373C117.793 43.6768 118.171 43.2415 118.663 42.9316C119.16 42.6217 119.746 42.4668 120.42 42.4668C121.25 42.4668 121.938 42.7152 122.485 43.2119C123.036 43.7087 123.33 44.3535 123.367 45.1465H122.17C122.134 44.668 121.952 44.276 121.623 43.9707C121.3 43.6608 120.899 43.5059 120.42 43.5059C119.778 43.5059 119.279 43.7383 118.923 44.2031C118.572 44.6634 118.397 45.3311 118.397 46.2061V46.4453C118.397 47.2975 118.572 47.9538 118.923 48.4141C119.274 48.8743 119.775 49.1045 120.427 49.1045ZM129.355 50C129.282 49.8542 129.223 49.5944 129.177 49.2207C128.589 49.8314 127.887 50.1367 127.072 50.1367C126.342 50.1367 125.743 49.9316 125.274 49.5215C124.809 49.1068 124.577 48.5827 124.577 47.9492C124.577 47.179 124.868 46.582 125.452 46.1582C126.039 45.7298 126.864 45.5156 127.926 45.5156H129.157V44.9346C129.157 44.4925 129.024 44.1416 128.76 43.8818C128.496 43.6175 128.106 43.4854 127.591 43.4854C127.14 43.4854 126.762 43.5993 126.456 43.8271C126.151 44.055 125.998 44.3307 125.998 44.6543H124.727C124.727 44.2852 124.857 43.9297 125.117 43.5879C125.381 43.2415 125.736 42.9681 126.183 42.7676C126.634 42.5671 127.129 42.4668 127.666 42.4668C128.519 42.4668 129.186 42.681 129.669 43.1094C130.152 43.5332 130.403 44.1188 130.421 44.8662V48.2705C130.421 48.9495 130.508 49.4896 130.681 49.8906V50H129.355ZM127.256 49.0361C127.653 49.0361 128.029 48.9336 128.384 48.7285C128.74 48.5234 128.997 48.2568 129.157 47.9287V46.4111H128.165C126.616 46.4111 125.841 46.8646 125.841 47.7715C125.841 48.168 125.973 48.4779 126.238 48.7012C126.502 48.9245 126.841 49.0361 127.256 49.0361ZM133.778 50H132.513V39.5H133.778V50Z" fill="black"/>
<path d="M84 36C84 36 83.8542 30.8958 83.7292 26.5208C83.6042 22.1458 83.5462 20.1159 83.5417 19.9583C83.5372 19.8007 83.5458 20.104 83.5417 19.9583C83.5375 19.8127 83.4375 16.3125 83.3125 11.9375C83.1875 7.5625 83 1 83 1" stroke="black" stroke-width="2" stroke-linejoin="round" stroke-dasharray="4 4"/>
</svg>
